<svg width="12" height="12" viewBox="0 0 12 12" fill="none" xmlns="http://www.w3.org/2000/svg">
<path fill-rule="evenodd" clip-rule="evenodd" d="M0.305421 0.91186C0.326097 0.752137 0.387397 0.599023 0.484441 0.464713C0.581485 0.330403 0.71159 0.218609 0.864393 0.138234C1.0172 0.0578594 1.18847 0.0111256 1.36459 0.00175487C1.5407 -0.00761583 1.71678 0.0206355 1.8788 0.0842588C2.69788 0.403486 4.53349 1.16218 6.86271 2.38776C9.19269 3.61404 10.8316 4.68493 11.5435 5.1708C12.1513 5.58636 12.1528 6.41045 11.5443 6.82741C10.8393 7.31047 9.22046 8.3673 6.86271 9.60905C4.50264 10.8508 2.68863 11.6004 1.87726 11.9154C1.17849 12.1875 0.39643 11.7747 0.305421 11.0878C0.198986 10.2848 0 8.46152 0 5.99911C0 3.5381 0.198215 1.71555 0.305421 0.91186Z" fill="white"/>
</svg>
